<?xml version="1.0" encoding="UTF-8" standalone="no"?>
<svg
   xmlns:dc="http://purl.org/dc/elements/1.1/"
   xmlns:cc="http://creativecommons.org/ns#"
   xmlns:rdf="http://www.w3.org/1999/02/22-rdf-syntax-ns#"
   xmlns:svg="http://www.w3.org/2000/svg"
   xmlns="http://www.w3.org/2000/svg"
   width="235.49142mm"
   height="259.61188mm"
   viewBox="0 0 235.49142 259.61188"
   version="1.1"
   id="svg2306">
  <defs
     id="defs2300" />
  <metadata
     id="metadata2303">
    <rdf:RDF>
      <cc:Work
         rdf:about="">
        <dc:format>image/svg+xml</dc:format>
        <dc:type
           rdf:resource="http://purl.org/dc/dcmitype/StillImage" />
        <dc:title></dc:title>
      </cc:Work>
    </rdf:RDF>
  </metadata>
  <g
     id="layer1"
     transform="translate(17.180532,-37.302322)">
    <path
       style="fill:none;stroke:#ffffff;stroke-width:13.22916667;stroke-linecap:round;stroke-linejoin:round;stroke-miterlimit:4;stroke-dasharray:none;stroke-opacity:1"
       d="m 143.81649,267.60909 c 0,-223.144798 0,-223.144798 0,-223.144798"
       id="path1413" />
    <path
       style="fill:none;stroke:#ffffff;stroke-width:13.22916667;stroke-linecap:round;stroke-linejoin:round;stroke-miterlimit:4;stroke-dasharray:none;stroke-opacity:1"
       d="m 27.665489,289.92357 c 147.828521,0 147.828521,0 147.828521,0"
       id="path1415" />
    <path
       style="fill:#054fa7;stroke:#ffffff;stroke-width:13.22916667;stroke-linecap:round;stroke-linejoin:round;stroke-miterlimit:4;stroke-dasharray:none;stroke-opacity:1;fill-opacity:1"
       d="M 27.665489,289.92357 C 143.81649,267.60909 143.81649,267.60909 143.81649,267.60909 c 0,-223.144798 0,-223.144798 0,-223.144798 31.67752,0 31.67752,0 31.67752,0 0,245.459278 0,245.459278 0,245.459278"
       id="path1483" />
    <path
       style="fill:#ffffff;fill-opacity:1;stroke:#ffffff;stroke-width:13.22916667;stroke-linecap:round;stroke-linejoin:round;stroke-miterlimit:4;stroke-dasharray:none;stroke-opacity:1"
       d="m 27.665489,289.92357 c 0,-245.459278 0,-245.459278 0,-245.459278 116.151001,0 116.151001,0 116.151001,0 0,223.144798 0,223.144798 0,223.144798"
       id="path1485" />
    <ellipse
       ry="16.735861"
       rx="10.559159"
       cy="172.53473"
       cx="128.13184"
       id="path1417"
       style="fill:#054fa7;fill-opacity:1;stroke:#ffffff;stroke-width:13.2292;stroke-linecap:round;stroke-linejoin:round;stroke-miterlimit:4;stroke-dasharray:none;stroke-opacity:1" />
  </g>
</svg>
