<?xml version="1.0" encoding="UTF-8" standalone="no"?>
<svg
   xmlns:dc="http://purl.org/dc/elements/1.1/"
   xmlns:cc="http://creativecommons.org/ns#"
   xmlns:rdf="http://www.w3.org/1999/02/22-rdf-syntax-ns#"
   xmlns:svg="http://www.w3.org/2000/svg"
   xmlns="http://www.w3.org/2000/svg"
   id="svg8"
   version="1.1"
   viewBox="0 0 233.19013 269.875"
   height="269.875mm"
   width="233.19014mm">
  <defs
     id="defs2" />
  <metadata
     id="metadata5">
    <rdf:RDF>
      <cc:Work
         rdf:about="">
        <dc:format>image/svg+xml</dc:format>
        <dc:type
           rdf:resource="http://purl.org/dc/dcmitype/StillImage" />
        <dc:title></dc:title>
      </cc:Work>
    </rdf:RDF>
  </metadata>
  <g
     transform="translate(-53.494215,-2.8348248)"
     id="layer1">
    <path
       style="fill:none;stroke:#ffffff;stroke-width:5.29166667;stroke-linecap:round;stroke-linejoin:round;stroke-miterlimit:4;stroke-dasharray:none;stroke-opacity:1"
       d="m 74.839285,5.4806581 c 190.500005,0 190.500005,0 190.500005,0 74.08334,211.6666619 -95.25,264.5833319 -95.25,264.5833319 v 0"
       id="path1505" />
    <path
       id="path1505-2"
       d="m 265.33929,5.4806581 c -190.500005,0 -190.500005,0 -190.500005,0 C 0.75594524,217.14732 170.08929,270.06399 170.08929,270.06399 v 0"
       style="fill:none;stroke:#ffffff;stroke-width:5.29166667;stroke-linecap:round;stroke-linejoin:round;stroke-miterlimit:4;stroke-dasharray:none;stroke-opacity:1" />
    <path
       style="fill:none;stroke:#ffffff;stroke-width:5.29166667;stroke-linecap:round;stroke-linejoin:round;stroke-miterlimit:4;stroke-dasharray:none;stroke-opacity:1"
       d="M 170.08929,26.647328 H 92.455135 C 32.073015,204.44732 170.08929,248.89732 170.08929,248.89732 v 0"
       id="path1505-2-3" />
    <path
       style="fill:none;stroke:#ffffff;stroke-width:5.29166667;stroke-linecap:round;stroke-linejoin:round;stroke-miterlimit:4;stroke-dasharray:none;stroke-opacity:1"
       d="m 171.14762,248.89732 c 0,-222.249992 0,-222.249992 0,-222.249992"
       id="path1537" />
    <path
       style="fill:#ffffff;stroke:#ffffff;stroke-width:5.29166667;stroke-linecap:round;stroke-linejoin:round;stroke-miterlimit:4;stroke-dasharray:none"
       d="M 160.26191,241.83314 C 137.5059,230.95093 116.11581,212.32617 102.64138,191.66187 97.447915,183.69719 90.357455,168.87841 87.345925,159.69494 76.018735,125.15342 77.547685,83.587588 91.857595,37.041668 l 2.49838,-8.12649 h 36.921715 36.92172 V 137.01637 c 0,59.45566 -0.25514,108.09424 -0.56697,108.08575 -0.31183,-0.008 -3.62857,-1.47953 -7.37053,-3.26898 z"
       id="path1541" />
    <path
       style="fill:#ffffff;stroke:#054fa7;stroke-width:5.29166667;stroke-linecap:round;stroke-linejoin:round;stroke-miterlimit:4;stroke-dasharray:none"
       d="m 138.33929,195.98066 c -1.80473,-1.95883 -23.64288,-45.36656 -23.64288,-46.995 0,-0.59453 0.88068,-2.1276 1.95708,-3.40682 2.64664,-3.14535 6.24376,-3.21935 8.74804,-0.17996 0.97245,1.18025 5.3335,9.34453 9.69121,18.14286 4.35769,8.79832 8.12155,15.99695 8.36412,15.99695 0.24254,0 15.04677,-18.79486 32.89832,-41.76637 17.85151,-22.9715 33.60245,-43.042032 35.0021,-44.601192 3.35036,-3.73215 6.62331,-3.90781 9.48324,-0.50896 2.14093,2.54436 2.37652,3.79336 1.14838,6.08817 -1.12956,2.110602 -72.16889,93.462242 -75.02301,96.474372 -2.85604,3.01414 -6.27038,3.31334 -8.6266,0.75595 z"
       id="path1549" />
  </g>
</svg>
